<?xml version="1.0" encoding="UTF-8"?>
<!DOCTYPE svg PUBLIC "-//W3C//DTD SVG 1.1//EN" "http://www.w3.org/Graphics/SVG/1.1/DTD/svg11.dtd">
<svg version="1.1" xmlns="http://www.w3.org/2000/svg" xmlns:xlink="http://www.w3.org/1999/xlink" x="0" y="0" width="483" height="553" viewBox="0, 0, 483, 553">
  <defs>
    <linearGradient id="Gradient_1" gradientUnits="userSpaceOnUse" x1="115.255" y1="267.902" x2="226.414" y2="380.493">
      <stop offset="0" stop-color="#ea580c"/>
      <stop offset="1" stop-color="#c2410c"/>
    </linearGradient>
  </defs>
  <g id="Layer_1">
    <path d="M324.125,104.246 C324.125,104.246 358.119,52.957 361.186,5.321 L381.957,17.586 C382.816,18.094 383.422,19.373 383.295,20.399 C383.295,20.399 371.889,115.008 338.139,133.27" fill="#4CA146"/>
    <path d="M378.051,167.098 C378.051,167.098 430.57,135.741 477.68,135.457 L466.811,113.709 C466.371,112.811 465.16,112.205 464.145,112.371 C464.145,112.371 390.922,124.285 370.961,157.381" fill="#4CA146"/>
    <path d="M301.957,156.287 C301.957,156.287 334.711,75.897 326.439,15.096 L358.422,20.379 C359.408,20.545 360.219,21.522 360.18,22.557 C360.18,22.557 357.514,122.352 316.43,161.473" fill="#6BA743"/>
    <path d="M313.627,162.616 C313.627,162.616 373.441,98.934 388.871,38.065 L415.727,55.36 C416.557,55.897 416.918,57.137 416.498,58.094 C416.498,58.094 376.508,151.766 324.73,173.094" fill="#6BA743"/>
    <path d="M334.604,184.52 C334.604,184.52 398.393,124.91 458.813,110.106 L442.045,82.742 C441.527,81.893 440.316,81.541 439.359,81.942 C439.359,81.942 346.176,121.102 324.369,173.153" fill="#6BA743"/>
    <path d="M323.754,187.518 C323.754,187.518 403.646,155.252 463.734,164.285 L458.852,131.903 C458.705,130.897 457.729,130.076 456.713,130.096 C456.713,130.096 357.934,131.737 318.793,172.83" fill="#6BA743"/>
    <path d="M404.398,213.289 C406.029,205.369 405.941,197.616 403.568,190.262 C397.045,170.096 381.654,141.219 363.256,130.194 C349.486,113.748 318.568,103.074 297.631,99.774 C290.004,98.573 282.338,99.705 274.76,102.537 C238.813,116.043 185.404,191.375 167.494,215.614 C132.924,262.459 67.514,346.854 40.668,398.641 C9.779,458.241 0.707,479.92 6.029,548.397 C74.506,542.967 91.889,524.432 145.932,484.617 C192.885,449.998 268.617,378.367 309.477,336.903 C330.629,315.438 396.684,250.897 404.398,213.289 z" fill="url(#Gradient_1)"/>
    <path d="M404.398,213.289 C406.029,205.369 405.941,197.616 403.568,190.262 C397.045,170.096 381.654,141.219 363.256,130.194 C360.941,127.43 358.1,124.832 354.945,122.401 C369.242,135.936 380.814,158.699 386.244,175.467 C388.627,182.83 388.715,190.584 387.084,198.504 C379.369,236.102 313.314,300.643 292.162,322.108 C251.313,363.592 175.561,435.213 128.607,469.823 C84.73,502.147 65.014,520.438 22.514,529.09 C12.055,541.336 6.029,548.397 6.029,548.397 C74.506,542.967 91.889,524.432 145.932,484.617 C192.885,449.998 268.617,378.367 309.477,336.903 C330.629,315.438 396.684,250.897 404.398,213.289" fill="#DF542A"/>
    <path d="M5.131,531.922 C5.268,537.098 5.57,542.557 6.029,548.397 C6.029,548.397 12.055,541.336 22.514,529.09 C17.133,530.194 11.342,531.121 5.131,531.922" fill="#DF542A"/>
    <path d="M265.014,151.658 C265.014,151.658 296.381,142.567 304.848,178.299 C304.848,178.299 287.963,155.174 265.014,151.658" fill="#C9532D"/>
    <path d="M265.014,151.658 L265.236,152.426 L265.268,152.417 C265.631,152.316 268.999,151.422 273.635,151.423 C278.498,151.423 284.731,152.403 290.414,156.243 C296.095,160.087 301.294,166.792 304.07,178.483 L304.848,178.299 L305.493,177.828 C305.47,177.797 301.219,171.976 294.064,165.697 C286.908,159.422 276.843,152.668 265.135,150.869 L265.014,151.658 L265.236,152.426 L265.014,151.658 L264.893,152.448 C276.134,154.165 285.986,160.73 293.01,166.898 C296.521,169.979 299.326,172.955 301.249,175.156 C302.211,176.257 302.952,177.165 303.451,177.795 C303.701,178.11 303.89,178.356 304.016,178.522 L304.158,178.71 L304.202,178.77 C304.427,179.078 304.836,179.184 305.182,179.025 C305.528,178.865 305.713,178.486 305.625,178.115 C302.79,166.124 297.348,158.993 291.309,154.919 C285.271,150.843 278.704,149.825 273.635,149.825 C268.473,149.826 264.84,150.878 264.791,150.891 C264.432,150.995 264.192,151.337 264.216,151.71 C264.241,152.084 264.523,152.392 264.893,152.448 L265.014,151.658" fill="#C9532D"/>
    <path d="M58.949,415.145 C58.949,415.145 90.297,406.033 98.783,441.785 C98.783,441.785 81.908,418.651 58.949,415.145" fill="#C9532D"/>
    <path d="M58.949,415.145 L59.172,415.912 L59.204,415.903 C59.567,415.801 62.941,414.904 67.582,414.905 C72.443,414.905 78.671,415.885 84.35,419.727 C90.028,423.571 95.225,430.279 98.006,441.97 L98.783,441.785 L99.429,441.314 C99.405,441.284 95.157,435.46 88.003,429.179 C80.848,422.904 70.783,416.149 59.07,414.355 L58.949,415.145 L59.172,415.912 L58.949,415.145 L58.829,415.935 C70.074,417.646 79.926,424.212 86.949,430.38 C90.46,433.462 93.264,436.439 95.186,438.641 C96.147,439.742 96.888,440.65 97.387,441.28 C97.636,441.596 97.826,441.841 97.952,442.008 L98.138,442.256 C98.362,442.564 98.771,442.67 99.117,442.511 C99.464,442.352 99.649,441.972 99.561,441.601 C96.72,429.61 91.281,422.478 85.245,418.403 C79.212,414.326 72.649,413.307 67.582,413.307 C62.413,413.308 58.775,414.364 58.726,414.378 C58.367,414.482 58.127,414.824 58.152,415.197 C58.177,415.57 58.459,415.878 58.829,415.935 L58.949,415.145" fill="#C9532D"/>
    <path d="M287.387,234.354 C287.387,234.354 319.838,230.809 322.025,267.469 C322.025,267.469 309.408,241.785 287.387,234.354" fill="#C9532D"/>
    <path d="M287.387,234.354 L287.474,235.148 L287.504,235.145 C287.664,235.129 288.449,235.06 289.676,235.06 C293.307,235.056 300.792,235.679 307.518,240.017 C310.885,242.186 314.072,245.275 316.545,249.709 C319.016,254.144 320.775,259.935 321.228,267.517 L322.025,267.469 L322.742,267.117 C322.725,267.082 319.548,260.616 313.587,253.198 C307.624,245.784 298.876,237.393 287.642,233.597 L287.387,234.354 L287.474,235.148 L287.387,234.354 L287.131,235.111 C297.919,238.746 306.49,246.913 312.341,254.199 C315.267,257.839 317.514,261.254 319.026,263.753 C319.782,265.003 320.355,266.025 320.738,266.731 C320.929,267.085 321.073,267.359 321.168,267.544 C321.216,267.637 321.251,267.707 321.275,267.754 L321.308,267.821 C321.476,268.163 321.861,268.339 322.229,268.241 C322.598,268.144 322.846,267.802 322.823,267.421 C322.359,259.644 320.545,253.603 317.941,248.931 C314.035,241.919 308.359,238.029 302.987,235.924 C297.611,233.816 292.53,233.463 289.676,233.462 C288.204,233.462 287.324,233.557 287.3,233.56 C286.928,233.6 286.633,233.896 286.592,234.267 C286.552,234.639 286.777,234.991 287.131,235.111 L287.387,234.354" fill="#C9532D"/>
    <path d="M267.992,238.143 C267.992,238.143 300.004,231.717 305.443,268.055 C305.443,268.055 290.57,243.582 267.992,238.143" fill="#C9532D"/>
    <path d="M267.992,238.143 L268.149,238.926 L268.235,238.91 C268.663,238.833 270.654,238.503 273.503,238.503 C278.109,238.501 284.93,239.368 291.047,243.476 C297.16,247.588 302.66,254.921 304.653,268.173 L305.443,268.055 L306.126,267.64 C306.105,267.607 302.361,261.446 295.76,254.585 C289.158,247.728 279.698,240.147 268.179,237.366 L267.992,238.143 L268.149,238.926 L267.992,238.143 L267.805,238.92 C278.865,241.578 288.13,248.953 294.609,255.693 C297.849,259.06 300.392,262.262 302.123,264.619 C302.988,265.797 303.65,266.764 304.094,267.434 C304.316,267.769 304.484,268.03 304.596,268.206 L304.721,268.406 L304.761,268.47 C304.958,268.796 305.357,268.936 305.715,268.806 C306.074,268.676 306.29,268.314 306.233,267.937 C304.209,254.345 298.439,246.502 291.937,242.15 C285.439,237.793 278.299,236.907 273.503,236.905 C270.107,236.905 267.873,237.352 267.835,237.36 C267.468,237.433 267.201,237.754 267.193,238.128 C267.186,238.501 267.442,238.832 267.805,238.92 L267.992,238.143" fill="#C9532D"/>
    <path d="M174.789,268.074 C174.789,268.074 207.24,264.52 209.428,301.19 C209.428,301.19 196.781,275.487 174.789,268.074" fill="#C9532D"/>
    <path d="M174.789,268.074 L174.876,268.869 L174.906,268.866 C175.068,268.85 175.855,268.78 177.088,268.78 C180.723,268.776 188.206,269.4 194.929,273.739 C198.294,275.908 201.479,278.997 203.95,283.432 C206.42,287.866 208.177,293.656 208.63,301.237 L209.428,301.19 L210.145,300.837 C210.127,300.803 206.943,294.332 200.978,286.911 C195.012,279.495 186.263,271.104 175.044,267.317 L174.789,268.074 L174.876,268.869 L174.789,268.074 L174.534,268.832 C185.307,272.457 193.878,280.624 199.733,287.912 C202.661,291.554 204.91,294.97 206.425,297.472 C207.182,298.722 207.756,299.744 208.139,300.452 C208.331,300.805 208.475,301.08 208.57,301.265 C208.618,301.358 208.654,301.428 208.677,301.475 L208.711,301.542 C208.879,301.884 209.263,302.059 209.632,301.962 C210,301.865 210.248,301.522 210.225,301.142 C209.762,293.365 207.949,287.326 205.346,282.654 C201.443,275.642 195.77,271.751 190.4,269.646 C185.026,267.537 179.945,267.183 177.088,267.182 C175.61,267.182 174.726,267.278 174.702,267.28 C174.33,267.321 174.035,267.617 173.995,267.988 C173.954,268.36 174.18,268.712 174.534,268.832 L174.789,268.074" fill="#C9532D"/>
    <path d="M155.375,271.844 C155.375,271.844 187.387,265.418 192.826,301.756 C192.826,301.756 177.953,277.283 155.375,271.844" fill="#C9532D"/>
    <path d="M155.375,271.844 L155.532,272.627 L155.618,272.611 C156.045,272.534 158.037,272.204 160.886,272.204 C165.492,272.203 172.313,273.069 178.43,277.178 C184.543,281.29 190.042,288.622 192.036,301.874 L192.826,301.756 L193.509,301.341 C193.488,301.308 189.744,295.148 183.143,288.286 C176.541,281.429 167.08,273.848 155.562,271.067 L155.375,271.844 L155.532,272.627 L155.375,271.844 L155.188,272.621 C166.248,275.28 175.512,282.655 181.992,289.394 C185.231,292.761 187.775,295.964 189.505,298.32 C190.371,299.498 191.033,300.465 191.477,301.135 C191.699,301.471 191.867,301.731 191.979,301.908 L192.104,302.107 L192.143,302.171 C192.341,302.497 192.74,302.637 193.098,302.507 C193.456,302.378 193.673,302.015 193.616,301.638 C191.591,288.046 185.822,280.203 179.32,275.851 C172.822,271.495 165.682,270.608 160.886,270.606 C157.49,270.607 155.256,271.053 155.218,271.061 C154.851,271.134 154.583,271.455 154.576,271.829 C154.569,272.203 154.824,272.533 155.188,272.621 L155.375,271.844" fill="#C9532D"/>
    <path d="M177.611,354.549 C177.611,354.549 210.063,350.994 212.25,387.664 C212.25,387.664 199.633,361.971 177.611,354.549" fill="#C9532D"/>
    <path d="M177.611,354.549 L177.698,355.343 L177.729,355.34 C177.89,355.324 178.678,355.254 179.91,355.254 C183.545,355.251 191.028,355.874 197.751,360.213 C201.116,362.383 204.301,365.472 206.772,369.906 C209.242,374.341 211,380.131 211.452,387.712 L212.25,387.664 L212.967,387.312 C212.949,387.278 209.773,380.809 203.811,373.389 C197.849,365.974 189.1,357.584 177.866,353.792 L177.611,354.549 L177.698,355.343 L177.611,354.549 L177.356,355.306 C188.144,358.936 196.715,367.103 202.566,374.39 C205.492,378.031 207.739,381.447 209.251,383.947 C210.007,385.197 210.58,386.219 210.962,386.926 C211.153,387.279 211.297,387.554 211.393,387.74 C211.44,387.832 211.476,387.902 211.499,387.949 L211.533,388.016 C211.701,388.358 212.085,388.534 212.454,388.437 C212.822,388.34 213.07,387.997 213.047,387.617 C212.584,379.84 210.771,373.8 208.168,369.129 C204.266,362.116 198.593,358.225 193.222,356.12 C187.848,354.012 182.767,353.657 179.91,353.656 C178.432,353.656 177.548,353.752 177.524,353.755 C177.152,353.796 176.857,354.091 176.817,354.463 C176.777,354.835 177.002,355.187 177.356,355.306 L177.611,354.549" fill="#C9532D"/>
    <path d="M158.217,358.338 C158.217,358.338 190.219,351.903 195.658,388.241 C195.658,388.241 180.795,363.778 158.217,358.338" fill="#C9532D"/>
    <path d="M158.217,358.338 L158.374,359.121 L158.46,359.105 C158.888,359.027 160.884,358.697 163.737,358.697 C168.343,358.695 175.16,359.562 181.272,363.67 C187.38,367.781 192.875,375.111 194.868,388.359 L195.658,388.241 L196.341,387.826 C196.32,387.793 192.578,381.634 185.98,374.775 C179.381,367.921 169.922,360.342 158.404,357.561 L158.217,358.338 L158.374,359.121 L158.217,358.338 L158.03,359.115 C169.09,361.774 178.352,369.146 184.828,375.883 C188.067,379.249 190.609,382.45 192.339,384.806 C193.204,385.984 193.865,386.95 194.31,387.62 C194.532,387.955 194.699,388.216 194.811,388.392 L194.936,388.591 L194.975,388.655 C195.173,388.981 195.572,389.121 195.93,388.992 C196.288,388.862 196.505,388.499 196.448,388.122 C194.424,374.536 188.66,366.695 182.163,362.343 C175.67,357.988 168.534,357.1 163.737,357.099 C160.336,357.099 158.098,357.547 158.059,357.555 C157.693,357.629 157.425,357.949 157.418,358.323 C157.411,358.697 157.666,359.027 158.03,359.115 L158.217,358.338" fill="#C9532D"/>
    <path d="M321.479,135.741 C321.479,135.741 285.785,116.727 237.191,170.975 C214.965,195.809 71.957,386.727 38.471,433.856 C38.471,433.856 121.938,266.639 256.693,135.067 C256.693,135.067 290.707,107.176 321.479,135.741" fill="#E9822C"/>
  </g>
</svg>
